<?xml version="1.0" encoding="UTF-8"?><svg id="Layer_2" xmlns="http://www.w3.org/2000/svg" viewBox="0 0 2682.73 441.67"><defs><style>.cls-1{fill:#f3f4f4;}.cls-2{fill:#fff;}.cls-3{fill:#cccccb;}.cls-4{fill:#76b900;}</style></defs><g id="Layer_1-2"><g id="NVIDIA_Inception_Program_Badge"><rect class="cls-1" x="1513.19" width="1169.54" height="441.67"/><path d="M2120.93,207.01v-69.52h7.42v69.52h-7.42Zm70.4,0l-36.93-55.82v55.82h-7.44v-69.52h7.05l36.95,55.62v-55.78h7.42v69.52l-7.05,.16Zm48.18,.57c-6.66,.08-13.07-2.52-17.79-7.22-6.54-6.56-6.54-13.39-6.54-28.16s0-21.59,6.54-28.16c4.72-4.7,11.13-7.3,17.79-7.22,12.51,0,21.8,7.63,24.13,20.71h-7.61c-1.86-8.51-7.83-14.07-16.52-14.07-4.5-.06-8.84,1.71-12.02,4.89-4.4,4.5-4.89,9.28-4.89,23.84s.49,19.34,4.89,23.84c3.19,3.18,7.52,4.94,12.02,4.89,8.69,0,14.85-5.56,16.71-14.07h7.42c-2.25,13-11.72,20.63-24.13,20.63v.08Zm39.67-.57v-69.52h43.21v6.65h-35.78v24.54h30.51v6.65h-30.51v25.13h35.78v6.56h-43.21Zm84.1-28.63h-18.4v28.63h-7.42v-69.52h25.91c12.7,0,21.49,7.93,21.49,20.45s-8.87,20.45-21.57,20.45Zm-.7-34.41h-17.79v27.67h17.79c8.69,0,14.76-4.68,14.76-13.88s-6.07-13.78-14.76-13.78Zm58.85,0v63.04h-7.44v-63.04h-20.12v-6.65h47.68v6.65h-20.12Zm33.9,63.04v-69.52h7.44v69.52h-7.44Zm66.25-6.65c-9.91,9.62-25.67,9.62-35.58,0-6.54-6.56-6.54-13.39-6.54-28.16s0-21.59,6.54-28.16c9.91-9.62,25.67-9.62,35.58,0,6.54,6.56,6.54,13.39,6.54,28.16s.08,21.51-6.54,28.08v.08Zm-5.77-51.9c-6.62-6.64-17.36-6.66-24-.05-.02,.02-.03,.03-.05,.05-4.4,4.48-4.89,9.18-4.89,23.74s.49,19.26,4.89,23.74c6.62,6.64,17.36,6.66,24,.05,.01-.02,.03-.03,.05-.05,4.4-4.48,4.89-9.18,4.89-23.74s-.49-19.34-4.89-23.82v.08Zm73.47,58.54l-36.95-55.82v55.82h-7.42v-69.52h7.03l36.95,55.62v-55.78h7.42v69.52l-7.03,.16Zm-442.45,69.05h-18.4v28.63h-7.42v-69.52h25.91c12.7,0,21.49,7.91,21.49,20.45s-8.87,20.45-21.57,20.45Zm-.7-34.29h-17.79v27.67h17.79c8.71,0,14.76-4.7,14.76-13.88s-6.05-13.78-14.76-13.78Zm76.58,62.94l-15.83-30.88h-16.71v30.88h-7.44v-69.52h26.68c12.13,0,20.63,7.34,20.63,19.36,.44,9.17-6.09,17.2-15.15,18.65l16.52,31.57-8.71-.06Zm-13.97-62.94h-18.57v25.52h18.57c8.18,0,13.86-4.21,13.86-12.72s-5.77-12.8-13.86-12.8Zm77.7,56.29c-9.9,9.65-25.68,9.65-35.58,0-6.54-6.54-6.54-13.39-6.54-28.14s0-21.61,6.54-28.16c9.9-9.65,25.68-9.65,35.58,0,6.54,6.54,6.54,13.39,6.54,28.16s.06,21.57-6.54,28.12v.02Zm-5.66-51.92c-6.62-6.64-17.36-6.66-24-.05-.02,.02-.03,.03-.05,.05-4.4,4.5-4.89,9.2-4.89,23.76s.49,19.24,4.89,23.74c6.62,6.64,17.36,6.66,24,.05,.02-.02,.03-.03,.05-.05,4.4-4.5,4.89-9.18,4.89-23.74s-.59-19.26-4.89-23.76Zm69.97,51.12c-9.66,10.25-25.79,10.73-36.04,1.08-.1-.1-.21-.2-.31-.3-6.54-6.54-6.54-13.39-6.54-28.14s0-21.61,6.54-28.16c4.71-4.72,11.13-7.33,17.79-7.24,13.29,0,22.29,8.61,24.33,20.84h-7.42c-2.04-8.81-8.18-14.19-16.91-14.19-4.51-.02-8.85,1.78-12.02,4.99-4.4,4.5-4.89,9.2-4.89,23.76s.49,19.34,4.89,23.84c3.19,3.18,7.52,4.94,12.02,4.89,5.07,.08,9.91-2.11,13.19-5.97,2.83-3.56,4.23-8.06,3.91-12.6v-5.28h-17.09v-6.56h24.54v11.04c-.1,8.04-1.78,13.39-6.07,17.99h.1Zm62.37,7.42l-15.83-30.88h-16.73v30.88h-7.42v-69.52h26.68c12.13,0,20.63,7.34,20.63,19.36,.43,9.17-6.09,17.19-15.15,18.65l16.52,31.57-8.71-.06Zm-14.07-62.92h-18.59v25.52h18.59c8.18,0,13.86-4.21,13.86-12.72s-5.77-12.8-13.86-12.8Zm82.75,62.94l-5.58-15.72h-30.39l-5.56,15.7h-7.91l25.6-69.52h6.26l25.52,69.52-7.93,.02Zm-20.63-58.85l-13.09,36.81h25.99l-12.9-36.81Zm93.61,58.83v-52.88l-19.06,41.94h-6.36l-19.36-41.94v52.88h-7.42v-69.52h7.42l22.68,49.36,22.1-49.42h7.42v69.52l-7.42,.06Z"/><rect class="cls-3" x="2031.94" y="49.93" width="5.09" height="342.36"/><g id="NVIDIA_Logo"><path id="NVIDIA" d="M1744.54,290.24v65h18.4v-65h-18.4Zm-144.91,0v65.09h18.65v-49.5h14.31c4.76,0,8.18,1.19,10.47,3.62,2.9,3.11,4.09,8.18,4.09,17.22v28.63h17.99v-36.01c0-25.66-16.36-29.12-32.47-29.12h-33.04m174.56,0v65h29.87c15.91,0,21.12-2.64,26.73-8.57,3.99-4.09,6.54-13.27,6.54-23.23,0-9.14-2.17-17.28-5.95-22.35-6.83-9.08-16.67-10.86-31.35-10.86h-25.85Zm18.28,14.15h7.91c11.49,0,18.91,5.15,18.91,18.4s-7.42,18.4-18.91,18.4h-7.91v-36.81Zm-74.49-14.15l-15.38,51.51-14.8-51.43h-19.9l21.04,65h26.58l21.35-65-18.89-.08Zm127.92,65h18.4v-64.92h-18.4v64.92Zm51.63-64.98l-25.7,65.04h18.16l4.09-11.49h30.43l3.86,11.49h19.71l-25.91-64.96-24.64-.08Zm59.97,66.97c-3.17-.01-5.74-2.59-5.73-5.77,.01-3.17,2.59-5.74,5.77-5.73,3.17,.01,5.73,2.58,5.73,5.75,.05,3.17-2.49,5.78-5.66,5.83-.03,0-.07,0-.1,0v-.08Zm0-10.37c-2.56-.05-4.68,2-4.72,4.56-.05,2.56,2,4.68,4.56,4.72,2.56,.05,4.68-2,4.72-4.56,0-.03,0-.07,0-.1,.02-2.48-1.97-4.52-4.46-4.54-.03,0-.07,0-.1,0v-.08Zm1.04,7.67l-1.12-2.35h-.65v2.35h-1.35v-6.13h2.49c1.06-.07,1.97,.74,2.04,1.8,0,.04,0,.07,0,.11,.01,.72-.44,1.38-1.12,1.62l1.29,2.58-1.57,.04Zm-.82-4.97h-.96v1.57h.94c.43,.07,.84-.23,.91-.66,.07-.43-.23-.84-.66-.91-.08-.01-.17-.01-.25,0h.02Zm-48.24-47.44l11.16,30.43h-22.68l11.51-30.43Z"/><path id="Eye_Mark" class="cls-4" d="M1720.19,137.98v-15.62c1.51,0,3.05-.18,4.62-.22,42.94-1.35,70.95,36.68,70.95,36.68,0,0-30.26,42.06-62.98,42.06-4.3,.01-8.58-.68-12.66-2.04v-47.36c16.69,2.04,20.04,9.37,30.06,26.03l22.31-18.75s-16.22-21.27-43.68-21.27c-2.88,.01-5.76,.18-8.63,.51m0-51.59v23.31c1.53-.12,3.07-.22,4.62-.29,59.59-2.04,98.42,48.73,98.42,48.73,0,0-44.6,54.04-91.05,54.04-4.02,0-8.03-.36-11.98-1.06v14.31c3.31,.43,6.64,.65,9.98,.65,43.23,0,74.49-22,104.78-48.05,5.01,4.09,25.56,13.74,29.79,18.01-28.79,24.03-95.88,43.37-133.91,43.37-3.55,0-7.1-.19-10.63-.55v20.26h164.32V86.37l-164.32,.04Zm0,112.46v12.27c-40-7.1-51.12-48.52-51.12-48.52,13.79-13.73,31.79-22.41,51.12-24.64v13.5h0c-16.75-2.04-29.81,13.58-29.81,13.58,0,0,7.32,26.23,29.87,33.78m-71.1-38.01c17.14-22.33,42.97-36.32,71.04-38.46v-12.64c-52.43,4.19-97.82,48.44-97.82,48.44,0,0,25.72,74.06,97.82,80.83v-13.43c-52.84-6.63-71.04-64.74-71.04-64.74Z"/></g></g><g><path class="cls-2" d="M0,124.64c0-3.84,2.95-7.08,7.08-7.08h25.97c3.84,0,7.08,3.25,7.08,7.08v79.67L114.49,120.51c1.18-1.47,2.95-2.95,5.61-2.95h29.51c5.61,0,8.56,6.2,4.72,10.62l-77.01,86.75,82.62,98.85c2.95,3.84,.59,10.33-5.31,10.33h-32.16c-2.95,0-4.72-1.18-5.31-2.06L40.13,227.03v90c0,3.84-3.25,7.08-7.08,7.08H7.08c-4.13,0-7.08-3.24-7.08-7.08V124.64Z"/><path class="cls-2" d="M278.55,114.61c59.01,0,106.22,47.51,106.22,106.52s-47.21,105.93-106.22,105.93-105.93-46.92-105.93-105.93,46.92-106.52,105.93-106.52Zm0,174.09c37.18,0,67.87-30.39,67.87-67.57s-30.69-68.16-67.87-68.16-67.57,30.98-67.57,68.16,30.39,67.57,67.57,67.57Z"/><path class="cls-2" d="M423.43,119.92c0-2.95,2.66-5.31,5.61-5.31h7.38l122.75,130.42h.29V123.17c0-2.95,2.36-5.61,5.61-5.61h27.15c2.95,0,5.61,2.66,5.61,5.61v198.58c0,2.95-2.66,5.31-5.61,5.31h-7.08l-123.34-135.44h-.29v126.88c0,2.95-2.36,5.61-5.61,5.61h-26.85c-2.95,0-5.61-2.66-5.61-5.61V119.92Z"/><path class="cls-2" d="M651.52,123.17c0-2.95,2.36-5.61,5.31-5.61h69.93c56.95,0,103.57,46.33,103.57,102.98s-46.62,103.57-103.57,103.57h-69.93c-2.95,0-5.31-2.66-5.31-5.61V123.17Zm71.7,164.94c38.36,0,66.39-28.92,66.39-67.57s-28.03-67.28-66.39-67.28h-33.64v134.85h33.64Z"/><path class="cls-2" d="M866.33,123.17c0-2.95,2.66-5.61,5.61-5.61h28.03c3.25,0,5.61,2.66,5.61,5.61v120.68c0,25.08,17.11,44.85,42.78,44.85s43.08-19.77,43.08-44.56V123.17c0-2.95,2.36-5.61,5.61-5.61h28.03c2.95,0,5.61,2.66,5.61,5.61v122.75c0,44.85-35.7,81.14-82.32,81.14s-82.03-36.29-82.03-81.14V123.17Z"/><path class="cls-2" d="M1185.5,217.27l59.31-92.36c2.36-3.84,0-8.26-5.02-8.26h-9l-38.54,60.22c.85,1.1,1.46,2.41,1.65,3.89,.59,4.48-2.55,8.59-7.03,9.18-4.48,.59-8.59-2.55-9.18-7.03-.59-4.48,2.55-8.59,7.03-9.18,.76-.1,1.5-.06,2.23,.05l36.56-57.13h-17.94c-2.36,0-4.13,1.48-4.72,2.66l-38.36,62.55h-.3l-37.77-62.55c-.88-1.18-2.36-2.66-4.72-2.66h-34.23c-5.02,0-7.38,4.43-5.02,8.26l59.01,92.36-61.37,97.67c-2.36,3.84,0,8.26,5.31,8.26h31.87c2.36,0,4.13-1.48,5.02-2.66l41.6-67.57h.89l42.19,67.57c.59,1.18,2.66,2.66,5.02,2.66h16.33l-105.3-163.91c-4.31,.35-8.2-2.71-8.77-7.04-.59-4.48,2.55-8.59,7.03-9.18s8.59,2.55,9.18,7.03c.28,2.14-.3,4.18-1.46,5.8l107.48,167.3h7.37c5.02,0,7.38-4.13,5.02-8.26l-61.37-97.67Z"/></g></g></svg>